Coordinates
version=1
nRows=10
nColumns=22
inDegrees=yes

Units are S.I. units (second, meters, Newtons, ...)
If the header above contains a line with 'inDegrees', this indicates whether rotational values are in degrees (yes) or radians (no).

endheader
time	pelvis_tilt	pelvis_list	pelvis_rotation	pelvis_tx	pelvis_ty	pelvis_tz	hip_flexion_r	hip_adduction_r	hip_rotation_r	knee_angle_r	ankle_angle_r	subtalar_angle_r	hip_flexion_l	hip_adduction_l	hip_rotation_l	knee_angle_l	ankle_angle_l	subtalar_angle_l	lumbar_extension	lumbar_bending	lumbar_rotation
      0.01000000	    -11.22291657	      3.26681706	    -30.34057389	     -0.99532147	      0.97878166	     -0.20385422	     18.58319717	      4.90859111	     -1.64436026	    -18.67347325	     16.86408105	     -9.23904743	     18.64016713	     -2.02540645	     -4.54706249	    -18.85983837	     19.41425228	     -3.99727187	      5.42052518	      3.51551397	      4.53140305
      0.02000000	    -11.22090019	      3.26608884	    -30.33610215	     -0.99530217	      0.97878300	     -0.20386738	     18.58631894	      4.90604868	     -1.64424944	    -18.68475553	     16.86560249	     -9.23400349	     18.63699028	     -2.02469813	     -4.54718201	    -18.85935443	     19.41245881	     -3.99196964	      5.42148340	      3.51297433	      4.53274806
      0.03000000	    -11.21142858	      3.28554107	    -30.33635061	     -0.99530435	      0.97877691	     -0.20390105	     18.61150004	      4.87796856	     -1.66222533	    -18.72700379	     16.89920212	     -9.16411254	     18.63559396	     -2.00099129	     -4.55065388	    -18.85237209	     19.40354524	     -3.92476060	      5.41893660	      3.48768370	      4.52920055
      0.04000000	    -11.21024932	      3.28284193	    -30.33257010	     -0.99528563	      0.97878147	     -0.20390595	     18.61278393	      4.87816415	     -1.66207796	    -18.73558886	     16.89757688	     -9.16285175	     18.63384971	     -2.00340009	     -4.55081320	    -18.85572499	     19.40360554	     -3.92398186	      5.41837395	      3.48644736	      4.53047876
      0.05000000	    -11.20374712	      3.27900818	    -30.33488544	     -0.99530379	      0.97878640	     -0.20392763	     18.62606481	      4.87652152	     -1.67066655	    -18.77168402	     16.89429299	     -9.15740877	     18.63239882	     -2.00477176	     -4.55461747	    -18.86713482	     19.40576852	     -3.92009217	      5.40093803	      3.48610616	      4.52689734
      0.06000000	    -11.20267885	      3.27710552	    -30.33245294	     -0.99529464	      0.97878952	     -0.20390947	     18.62813229	      4.87791701	     -1.67297665	    -18.78032727	     16.89459621	     -9.15600785	     18.62991513	     -2.00786824	     -4.55631373	    -18.86907082	     19.40669104	     -3.91913701	      5.40052942	      3.47937238	      4.52593394
      0.07000000	    -11.19429627	      3.27586257	    -30.33604778	     -0.99531190	      0.97878937	     -0.20392405	     18.64486017	      4.87302815	     -1.68460537	    -18.82459930	     16.89718405	     -9.14959844	     18.62437127	     -2.00599189	     -4.56464431	    -18.87390425	     19.41238846	     -3.91395548	      5.38295919	      3.47709215	      4.51805750
      0.08000000	    -11.19415999	      3.27446731	    -30.33291002	     -0.99531150	      0.97878592	     -0.20389793	     18.64716818	      4.87514020	     -1.68615842	    -18.83095322	     16.89826534	     -9.14835811	     18.62201560	     -2.00936591	     -4.56588849	    -18.87308241	     19.41339016	     -3.91304814	      5.38191011	      3.46936170	      4.51802087
      0.09000000	    -11.18634871	      3.27426003	    -30.33790325	     -0.99532698	      0.97878359	     -0.20389452	     18.66435407	      4.87118008	     -1.69500749	    -18.87602291	     16.90582043	     -9.14103126	     18.61049247	     -2.00748003	     -4.57258453	    -18.86532606	     19.42084587	     -3.90649691	      5.36720743	      3.46521936	      4.51300712
      0.10000000	    -11.18632038	      3.27333378	    -30.33323374	     -0.99533075	      0.97877777	     -0.20386337	     18.66667108	      4.87386583	     -1.69558326	    -18.88235322	     16.90744878	     -9.13965055	     18.60804112	     -2.01019367	     -4.57416730	    -18.86225623	     19.42191928	     -3.90539910	      5.36507456	      3.45732403	      4.51380608
